<svg width="250" height="250" viewBox="0 0 250 250" fill="none" xmlns="http://www.w3.org/2000/svg">
<rect width="250" height="250" fill="#5453D3"/>
<path fill-rule="evenodd" clip-rule="evenodd" d="M107.771 52.628C107.771 48.4152 104.343 45 100.114 45H81.9684C77.7397 45 74.3117 48.4152 74.3117 52.628V70.7052C74.3117 74.9181 70.8837 78.3332 66.6549 78.3332H49.6568C45.4281 78.3332 42 81.7484 42 85.9612V197.372C42 201.584 45.428 205 49.6568 205H67.8021C72.0308 205 75.4589 201.584 75.4589 197.372V85.9613C75.4589 81.7484 78.8869 78.3333 83.1156 78.3333H100.114C104.343 78.3333 107.771 74.9181 107.771 70.7053V52.628ZM174.689 52.628C174.689 48.4152 171.26 45 167.032 45H148.886C144.657 45 141.229 48.4151 141.229 52.628V70.7053C141.229 74.9181 144.657 78.3333 148.886 78.3333H165.884C170.113 78.3333 173.541 81.7484 173.541 85.9613V197.372C173.541 201.584 176.969 205 181.198 205H199.343C203.572 205 207 201.584 207 197.372V85.9612C207 81.7484 203.572 78.3332 199.343 78.3332H182.345C178.116 78.3332 174.689 74.918 174.689 70.7052V52.628ZM141.229 116.437C141.229 112.225 137.801 108.809 133.572 108.809H115.428C111.199 108.809 107.771 112.225 107.771 116.437V165.943C107.771 170.156 111.199 173.571 115.428 173.571H133.572C137.801 173.571 141.229 170.156 141.229 165.943V116.437Z" fill="white"/>
</svg>
