<svg width="250" height="250" viewBox="0 0 250 250" fill="none" xmlns="http://www.w3.org/2000/svg">
<rect width="250" height="250" fill="black"/>
<g clip-path="url(#clip0_179_23)">
<path fill-rule="evenodd" clip-rule="evenodd" d="M139.765 99.0509C145.191 96.3511 152.096 92.3769 159.008 86.9318C160.466 89.952 160.625 92.5875 159.874 94.7156C159.342 96.2154 158.339 97.5199 157.021 98.5577C155.593 99.6793 153.81 100.496 151.838 100.937C148.098 101.778 143.731 101.287 139.765 99.0509ZM140.706 126.714L147.889 130.854C133.223 139.056 129.236 154.286 124.5 169.121C119.764 154.286 115.777 139.056 101.112 130.854L108.294 126.714C108.989 126.452 109.583 125.977 109.991 125.357C110.399 124.738 110.6 124.006 110.565 123.265C109.907 109.372 113.666 103.229 118.737 99.3713C120.555 97.9895 122.541 97.2957 124.5 97.2957C126.459 97.2957 128.444 97.9895 130.263 99.3713C135.334 103.229 139.094 109.372 138.435 123.265C138.401 124.006 138.601 124.738 139.009 125.357C139.417 125.977 140.011 126.452 140.706 126.714ZM124.5 36C132.802 36.2224 141.126 37.8308 148.349 40.9595C153.351 43.129 158.019 45.9946 162.245 49.4213C164.154 50.9683 165.725 52.4628 167.457 54.1832C172.126 54.3443 178.95 49.1682 182.118 44.3249C176.666 62.1606 151.786 83.223 134.562 91.2824C134.555 91.2795 134.55 91.2753 134.545 91.2718C131.454 88.9165 127.977 87.7389 124.5 87.7389C121.023 87.7389 117.546 88.9165 114.455 91.2718C114.45 91.2747 114.445 91.2801 114.438 91.2824C97.2133 83.223 72.3344 62.1606 66.8823 44.3249C70.0498 49.1682 76.8736 54.3443 81.5429 54.1832C83.2747 52.4634 84.8463 50.9683 86.7543 49.4213C90.9807 45.9946 95.6482 43.129 100.65 40.9595C107.874 37.8308 116.198 36.2224 124.5 36ZM109.234 99.0509C103.809 96.3511 96.9041 92.3769 89.9921 86.9318C88.5346 89.952 88.375 92.5875 89.1253 94.7156C89.658 96.2154 90.6608 97.5199 91.9788 98.5577C93.4073 99.6793 95.1905 100.496 97.1618 100.937C100.902 101.778 105.269 101.287 109.234 99.0509Z" fill="white"/>
<path fill-rule="evenodd" clip-rule="evenodd" d="M166.579 80.2593C170.384 76.4272 173.737 72.1857 176.434 68.4009L177.803 70.9727C182.211 79.7737 184.502 88.5393 184.502 98.4041L184.493 114.058L184.575 122.173C184.895 142.095 189.214 162.251 199 180.697L178.526 164.223L164.039 187.681L148.82 173.384L124.5 212.766L100.18 173.385L84.9612 187.681L70.4745 164.223L50 180.697C59.7855 162.252 64.1053 142.095 64.4252 122.173L64.508 114.059L64.4985 98.4047C64.4985 88.5394 66.7885 79.7737 71.1982 70.9733L72.567 68.4015C75.2632 72.1863 78.6157 76.4272 82.4217 80.2599L81.2332 82.7231C78.9243 87.5074 78.1598 92.857 79.9585 97.9445C81.1179 101.221 83.2341 104.032 85.9622 106.177C88.6111 108.26 91.746 109.664 95.0282 110.402C97.1662 110.882 99.3444 111.08 101.508 111.012C101.004 113.869 100.783 116.831 100.769 119.849L81.4556 130.98L96.3591 139.317C97.5503 139.983 98.6843 140.746 99.7494 141.599C112.037 152.607 119.424 185.174 124.501 201.081C129.578 185.174 136.965 152.607 149.252 141.599C150.317 140.746 151.451 139.983 152.643 139.317L167.546 130.98L148.232 119.849C148.218 116.831 147.998 113.869 147.493 111.012C149.657 111.08 151.835 110.882 153.973 110.402C157.255 109.664 160.391 108.26 163.039 106.177C165.766 104.032 167.883 101.221 169.042 97.9445C170.841 92.857 170.076 87.508 167.768 82.7231L166.579 80.2599L166.579 80.2593Z" fill="white"/>
</g>
<defs>
<clipPath id="clip0_179_23">
<rect width="149" height="177" fill="white" transform="translate(50 36)"/>
</clipPath>
</defs>
</svg>
